<svg width="113" height="108" viewBox="0 0 113 108" fill="none" xmlns="http://www.w3.org/2000/svg">
<path d="M77.9665 12.9843C77.9665 20.1553 72.2509 25.9685 65.2005 25.9685C58.15 25.9685 52.4344 20.1553 52.4344 12.9843C52.4344 5.81325 58.15 0 65.2005 0C72.2509 0 77.9665 5.81325 77.9665 12.9843Z" fill="#151414"/>
<path d="M60.094 12.9843C60.094 20.1553 54.3785 25.9685 47.328 25.9685C40.2775 25.9685 34.562 20.1553 34.562 12.9843C34.562 5.81325 40.2775 0 47.328 0C54.3785 0 60.094 5.81325 60.094 12.9843Z" fill="#151414"/>
<path d="M63.2856 45.4449L56.2642 46.7433L49.2429 45.4449L37.3438 20.7136C35.8036 17.5125 37.0885 13.647 40.2225 12.0532L56.2642 3.89528L72.3059 12.0532C75.44 13.647 76.7249 17.5125 75.1847 20.7136L63.2856 45.4449Z" fill="#151414"/>
<path d="M104.172 61.5528C97.4754 64.0502 90.0222 60.6461 87.5248 53.9495C85.0274 47.2529 88.4315 39.7996 95.1281 37.3022C101.825 34.8048 109.278 38.2089 111.775 44.9056C114.273 51.6022 110.869 59.0554 104.172 61.5528Z" fill="#151414"/>
<path d="M97.8413 44.5774C91.1447 47.0748 83.6915 43.6707 81.1941 36.9741C78.6966 30.2775 82.1008 22.8242 88.7974 20.3268C95.494 17.8294 102.947 21.2335 105.445 27.9302C107.942 34.6268 104.538 42.08 97.8413 44.5774Z" fill="#151414"/>
<path d="M68.6586 58.9136L64.959 52.6969L63.6844 45.5758L82.5647 25.6609C85.0085 23.0832 89.0734 22.9574 91.6719 25.379L104.972 37.7744L103.036 55.8521C102.658 59.3839 99.5036 61.9505 95.9687 61.6025L68.6586 58.9136Z" fill="#151414"/>
<path d="M8.4226 61.5528C15.1192 64.0502 22.5724 60.6461 25.0698 53.9495C27.5672 47.2529 24.1631 39.7996 17.4665 37.3022C10.7699 34.8048 3.31668 38.2089 0.81927 44.9056C-1.67814 51.6022 1.72599 59.0554 8.4226 61.5528Z" fill="#151414"/>
<path d="M14.7533 44.5774C21.4499 47.0748 28.9032 43.6707 31.4006 36.9741C33.898 30.2775 30.4939 22.8242 23.7972 20.3268C17.1006 17.8294 9.64742 21.2335 7.15001 27.9302C4.6526 34.6268 8.05673 42.08 14.7533 44.5774Z" fill="#151414"/>
<path d="M43.9361 58.9136L47.6357 52.6969L48.9102 45.5758L30.0299 25.6609C27.5861 23.0832 23.5213 22.9574 20.9228 25.379L7.62222 37.7744L9.55824 55.8521C9.93648 59.3839 13.0911 61.9505 16.626 61.6025L43.9361 58.9136Z" fill="#151414"/>
<path d="M61.4549 101.643C57.5948 95.6279 59.3416 87.6224 65.3567 83.7622C71.3717 79.9021 79.3772 81.6489 83.2373 87.664C87.0975 93.679 85.3506 101.684 79.3356 105.545C73.3206 109.405 65.3151 107.658 61.4549 101.643Z" fill="#151414"/>
<path d="M76.7026 91.8576C72.8424 85.8426 74.5893 77.8372 80.6043 73.977C86.6194 70.1168 94.6248 71.8637 98.485 77.8787C102.345 83.8937 100.598 91.8992 94.5833 95.7594C88.5682 99.6195 80.5628 97.8727 76.7026 91.8576Z" fill="#151414"/>
<path d="M56.5061 66.377L61.7974 61.4437L68.4865 58.6886L91.951 72.9184C94.9881 74.7602 95.9727 78.706 94.1569 81.7588L84.8626 97.3846L66.7854 99.3247C63.2536 99.7037 60.0767 97.1648 59.6675 93.6365L56.5061 66.377Z" fill="#151414"/>
<path d="M51.381 101.643C55.2412 95.6279 53.4943 87.6224 47.4793 83.7622C41.4643 79.9021 33.4588 81.6489 29.5987 87.664C25.7385 93.679 27.4853 101.684 33.5004 105.545C39.5154 109.405 47.5209 107.658 51.381 101.643Z" fill="#151414"/>
<path d="M36.1334 91.8576C39.9935 85.8426 38.2467 77.8372 32.2316 73.977C26.2166 70.1168 18.2112 71.8637 14.351 77.8787C10.4908 83.8937 12.2377 91.8992 18.2527 95.7594C24.2677 99.6195 32.2732 97.8727 36.1334 91.8576Z" fill="#151414"/>
<path d="M56.3298 66.377L51.0386 61.4437L44.3495 58.6886L20.885 72.9184C17.8478 74.7602 16.8632 78.706 18.6791 81.7588L27.9734 97.3846L46.0506 99.3247C49.5823 99.7037 52.7593 97.1648 53.1685 93.6365L56.3298 66.377Z" fill="#151414"/>
</svg>
